<?xml version="1.0" encoding="UTF-8" standalone="no"?>
<!-- Created with Inkscape (http://www.inkscape.org/) -->

<svg
   xmlns:dc="http://purl.org/dc/elements/1.1/"
   xmlns:cc="http://creativecommons.org/ns#"
   xmlns:rdf="http://www.w3.org/1999/02/22-rdf-syntax-ns#"
   xmlns:svg="http://www.w3.org/2000/svg"
   xmlns="http://www.w3.org/2000/svg"
   xmlns:xlink="http://www.w3.org/1999/xlink"
   xmlns:sodipodi="http://sodipodi.sourceforge.net/DTD/sodipodi-0.dtd"
   xmlns:inkscape="http://www.inkscape.org/namespaces/inkscape"
   version="1.2"
   width="72"
   height="72"
   id="svg2408"
   style="display:inline"
   inkscape:version="0.91 r13725"
   sodipodi:docname="alexandra.svg"
   inkscape:export-filename="alexandra.png"
   inkscape:export-xdpi="320"
   inkscape:export-ydpi="320">
  <metadata
     id="metadata83">
    <rdf:RDF>
      <cc:Work
         rdf:about="">
        <dc:format>image/svg+xml</dc:format>
        <dc:type
           rdf:resource="http://purl.org/dc/dcmitype/StillImage" />
        <dc:title />
      </cc:Work>
    </rdf:RDF>
  </metadata>
  <sodipodi:namedview
     pagecolor="#ffffff"
     bordercolor="#666666"
     borderopacity="1"
     objecttolerance="10"
     gridtolerance="10"
     guidetolerance="10"
     inkscape:pageopacity="0"
     inkscape:pageshadow="2"
     inkscape:window-width="1021"
     inkscape:window-height="547"
     id="namedview81"
     showgrid="false"
     showborder="true"
     fit-margin-top="0"
     fit-margin-left="0"
     fit-margin-right="0"
     fit-margin-bottom="0"
     inkscape:zoom="4.9166667"
     inkscape:cx="17.081661"
     inkscape:cy="32.4405"
     inkscape:window-x="1"
     inkscape:window-y="25"
     inkscape:window-maximized="1"
     inkscape:current-layer="svg2408" />
  <defs
     id="defs2410">
    <linearGradient
       id="linearGradient3699">
      <stop
         id="stop3701"
         style="stop-color:#52802d;stop-opacity:1"
         offset="0" />
      <stop
         id="stop3703"
         style="stop-color:#52802d;stop-opacity:0.50196081"
         offset="1" />
    </linearGradient>
    <linearGradient
       id="linearGradient3348">
      <stop
         id="stop3350"
         style="stop-color:#95c070;stop-opacity:1"
         offset="0" />
      <stop
         id="stop3356"
         style="stop-color:#52802d;stop-opacity:1"
         offset="0.71691591" />
      <stop
         id="stop3352"
         style="stop-color:#52802d;stop-opacity:1"
         offset="1" />
    </linearGradient>
    <linearGradient
       id="linearGradient3187">
      <stop
         id="stop3189"
         style="stop-color:#52802d;stop-opacity:1"
         offset="0" />
      <stop
         id="stop3191"
         style="stop-color:#95c070;stop-opacity:1"
         offset="1" />
    </linearGradient>
    <linearGradient
       x1="45.447727"
       y1="80.471962"
       x2="45.447727"
       y2="7.0165396"
       id="ButtonShadow"
       gradientUnits="userSpaceOnUse"
       gradientTransform="matrix(1.0058652,0,0,0.994169,0,12)">
      <stop
         id="stop3750"
         style="stop-color:#000000;stop-opacity:1"
         offset="0" />
      <stop
         id="stop3752"
         style="stop-color:#000000;stop-opacity:0.58823532"
         offset="1" />
    </linearGradient>
    <linearGradient
       id="linearGradient3737">
      <stop
         id="stop3739"
         style="stop-color:#ffffff;stop-opacity:1"
         offset="0" />
      <stop
         id="stop3741"
         style="stop-color:#ffffff;stop-opacity:0"
         offset="1" />
    </linearGradient>
    <filter
       id="filter3174"
       style="color-interpolation-filters:sRGB">
      <feGaussianBlur
         id="feGaussianBlur3176"
         stdDeviation="1.71" />
    </filter>
    <linearGradient
       x1="36.357143"
       y1="18"
       x2="36.357143"
       y2="73.994667"
       id="linearGradient3188"
       xlink:href="#linearGradient3737"
       gradientUnits="userSpaceOnUse"
       gradientTransform="translate(-0.40677576,1.6271188)" />
    <linearGradient
       x1="23.607143"
       y1="6"
       x2="23.607143"
       y2="58.466385"
       id="linearGradient4010"
       xlink:href="#linearGradient3737"
       gradientUnits="userSpaceOnUse" />
    <linearGradient
       x1="45.447727"
       y1="80.471962"
       x2="45.447727"
       y2="5.297224"
       id="linearGradient4018"
       xlink:href="#ButtonShadow"
       gradientUnits="userSpaceOnUse"
       gradientTransform="matrix(1.0058652,0,0,0.994169,0,12)" />
    <linearGradient
       x1="34.85965"
       y1="17.736111"
       x2="34.85965"
       y2="32.012737"
       id="linearGradient4023"
       xlink:href="#linearGradient3348"
       gradientUnits="userSpaceOnUse"
       gradientTransform="matrix(0.72,0,0,0.72,1.92,-5.52)" />
    <linearGradient
       x1="48"
       y1="78"
       x2="48"
       y2="5.9877172"
       id="linearGradient3312"
       xlink:href="#ButtonShadow"
       gradientUnits="userSpaceOnUse"
       gradientTransform="translate(0.40678356,13.22034)" />
    <linearGradient
       id="linearGradient3737-5">
      <stop
         id="stop3739-0"
         style="stop-color:#ffffff;stop-opacity:1"
         offset="0" />
      <stop
         id="stop3741-4"
         style="stop-color:#ffffff;stop-opacity:0"
         offset="1" />
    </linearGradient>
    <radialGradient
       cx="48"
       cy="90.171875"
       r="42"
       fx="48"
       fy="90.171875"
       id="radialGradient3662"
       xlink:href="#linearGradient3737-5"
       gradientUnits="userSpaceOnUse"
       gradientTransform="matrix(1.1573129,0,0,0.99590774,-7.9577968,1.8242508)" />
    <linearGradient
       x1="51.17857"
       y1="76.408951"
       x2="51.17857"
       y2="31.782455"
       id="linearGradient2957"
       xlink:href="#ButtonShadow-9"
       gradientUnits="userSpaceOnUse" />
    <clipPath
       id="clipPath2971">
      <path
         d="m 38,32 c -6.627416,0 -12,5.372584 -12,12 0,4.456718 2.45369,8.336505 6.0625,10.40625 C 32.022668,54.601895 32,54.79225 32,55 l 0,2.03125 C 31.836963,57.004695 31.673125,57 31.5,57 30.115,57 29,57.892 29,59 c 0,1.108 1.115,2 2.5,2 0.173125,0 0.336963,-0.0047 0.5,-0.03125 L 32,67 c 0,1.662 1.338,3 3,3 l 1,0 3.5625,0 -3.1875,4.1875 C 35.812952,74.91735 36.639363,76.00671 37.75,76 l 9,0 9.03125,0 c 1.110637,0.0067 1.937048,-1.08265 1.375,-1.8125 L 53.96875,70 58,70 l 1,0 c 1.662,0 3,-1.338 3,-3 l 0,-3.03125 0.40625,0 5.15625,3.59375 c 0.485527,0.431077 1.109339,0.434113 1.59375,0 0.484411,-0.434083 0.811192,-1.288918 0.8125,-2.15625 l 0,-4.9375 0,-3.9375 c 0.01059,-1.420441 -0.903594,-2.681381 -1.8125,-2.5 -0.20856,0.0426 -0.411574,0.149448 -0.59375,0.3125 l -5.15625,3.625 -0.40625,0 L 62,55 C 62,54.37675 61.82284,53.791152 61.5,53.3125 64.230964,51.11566 66,47.780028 66,44 66,37.372584 60.627416,32 54,32 50.921903,32 48.123486,33.153599 46,35.0625 43.876514,33.153599 41.078097,32 38,32 Z m 0,6 c 1.863961,0 3.524512,0.854017 4.625,2.1875 0.427968,0.518577 0.763242,1.107738 1,1.75 0.100944,0.27569 0.190056,0.550811 0.25,0.84375 0.01086,0.05217 0.02176,0.103585 0.03125,0.15625 0.0054,0.03036 -0.0049,0.06323 0,0.09375 C 43.958106,43.347084 44,43.669296 44,44 c 0,0.330704 -0.04189,0.652916 -0.09375,0.96875 -0.005,0.03031 0.0054,0.0636 0,0.09375 -0.04415,0.24929 -0.113586,0.48111 -0.1875,0.71875 -0.02933,0.09358 -0.06,0.189706 -0.09375,0.28125 -0.236758,0.642262 -0.572032,1.231423 -1,1.75 C 41.524512,49.145983 39.863961,50 38,50 c -3.313709,0 -6,-2.686291 -6,-6 0,-3.313709 2.686291,-6 6,-6 z m 16,0 c 3.313709,0 6,2.686291 6,6 0,3.313709 -2.686291,6 -6,6 -1.863961,0 -3.524512,-0.854017 -4.625,-2.1875 -0.427968,-0.518577 -0.763242,-1.107738 -1,-1.75 -0.111856,-0.305494 -0.219962,-0.611051 -0.28125,-0.9375 -0.0095,-0.04992 0.0083,-0.105896 0,-0.15625 C 48.041894,44.652916 48,44.330704 48,44 c 0,-0.330704 0.04189,-0.652916 0.09375,-0.96875 0.0083,-0.05035 -0.0095,-0.106332 0,-0.15625 0.06129,-0.326449 0.169394,-0.632006 0.28125,-0.9375 0.236758,-0.642262 0.572032,-1.231423 1,-1.75 C 50.475488,38.854017 52.136039,38 54,38 Z m -16,2 c -2.209138,0 -4,1.790862 -4,4 0,2.209138 1.790862,4 4,4 2.209138,0 4,-1.790862 4,-4 0,-2.209138 -1.790862,-4 -4,-4 z m 16,0 c -2.209138,0 -4,1.790862 -4,4 0,2.209138 1.790862,4 4,4 2.209138,0 4,-1.790862 4,-4 0,-2.209138 -1.790862,-4 -4,-4 z"
         id="path2973"
         style="opacity:0.9;fill:#ff0000;fill-opacity:1;stroke:none"
         inkscape:connector-curvature="0" />
    </clipPath>
    <filter
       id="filter3747"
       style="color-interpolation-filters:sRGB">
      <feGaussianBlur
         id="feGaussianBlur3749"
         stdDeviation="0.43984436" />
    </filter>
    <clipPath
       id="clipPath3766">
      <path
         d="m 19,24 c -1.662,0 -3,1.338 -3,3 l 0,58 c 0,1.662 1.338,3 3,3 l 58,0 c 1.662,0 3,-1.338 3,-3 l 0,-58 c 0,-1.662 -1.338,-3 -3,-3 l -58,0 z m 19,8 c 3.078097,0 5.876514,1.153599 8,3.0625 C 48.123486,33.153599 50.921903,32 54,32 c 6.627416,0 12,5.372584 12,12 0,3.780028 -1.769036,7.11566 -4.5,9.3125 C 61.82284,53.791152 62,54.37675 62,55 l 0,2.96875 0.40625,0 5.15625,-3.625 c 0.182176,-0.163052 0.38519,-0.2699 0.59375,-0.3125 0.908906,-0.181381 1.82309,1.079559 1.8125,2.5 l 0,3.9375 0,4.9375 c -0.0013,0.867332 -0.328089,1.722167 -0.8125,2.15625 -0.484411,0.434113 -1.108223,0.431077 -1.59375,0 L 62.40625,63.96875 62,63.96875 62,67 c 0,1.662 -1.338,3 -3,3 l -1,0 -4.03125,0 3.1875,4.1875 c 0.562048,0.72985 -0.264363,1.8192 -1.375,1.8125 l -9.03125,0 -9,0 c -1.110637,0.0067 -1.937048,-1.08265 -1.375,-1.8125 L 39.5625,70 36,70 35,70 c -1.662,0 -3,-1.338 -3,-3 l 0,-6.03125 C 31.836963,60.9953 31.673125,61 31.5,61 30.115,61 29,60.108 29,59 c 0,-1.108 1.115,-2 2.5,-2 0.173125,0 0.336963,0.0047 0.5,0.03125 L 32,55 c 0,-0.20775 0.02267,-0.398105 0.0625,-0.59375 C 28.45369,52.336505 26,48.456718 26,44 26,37.372584 31.372584,32 38,32 Z m 0,6 c -3.313709,0 -6,2.686291 -6,6 0,3.313709 2.686291,6 6,6 1.863961,0 3.524512,-0.854017 4.625,-2.1875 0.427968,-0.518577 0.763242,-1.107738 1,-1.75 0.03375,-0.09154 0.06442,-0.18767 0.09375,-0.28125 0.07391,-0.23764 0.14335,-0.46946 0.1875,-0.71875 0.0054,-0.03015 -0.005,-0.06344 0,-0.09375 C 43.95811,44.652916 44,44.330704 44,44 c 0,-0.330704 -0.04189,-0.652916 -0.09375,-0.96875 -0.0049,-0.03052 0.0054,-0.06339 0,-0.09375 -0.0095,-0.05266 -0.02039,-0.10408 -0.03125,-0.15625 -0.05994,-0.292939 -0.149056,-0.56806 -0.25,-0.84375 -0.236758,-0.642262 -0.572032,-1.231423 -1,-1.75 C 41.524512,38.854017 39.863961,38 38,38 Z m 16,0 c -1.863961,0 -3.524512,0.854017 -4.625,2.1875 -0.427968,0.518577 -0.763242,1.107738 -1,1.75 -0.111856,0.305494 -0.21996,0.611051 -0.28125,0.9375 -0.0095,0.04992 0.0083,0.1059 0,0.15625 C 48.04189,43.347084 48,43.669296 48,44 c 0,0.330704 0.04189,0.652916 0.09375,0.96875 0.0083,0.05035 -0.0095,0.10633 0,0.15625 0.06129,0.326449 0.169394,0.632006 0.28125,0.9375 0.236758,0.642262 0.572032,1.231423 1,1.75 C 50.475488,49.145983 52.136039,50 54,50 c 3.313709,0 6,-2.686291 6,-6 0,-3.313709 -2.686291,-6 -6,-6 z m -16,2 c 2.209138,0 4,1.790862 4,4 0,2.209138 -1.790862,4 -4,4 -2.209138,0 -4,-1.790862 -4,-4 0,-2.209138 1.790862,-4 4,-4 z m 16,0 c 2.209138,0 4,1.790862 4,4 0,2.209138 -1.790862,4 -4,4 -2.209138,0 -4,-1.790862 -4,-4 0,-2.209138 1.790862,-4 4,-4 z"
         id="path3768"
         style="opacity:0.35;fill:#d40000;fill-opacity:1;stroke:none"
         inkscape:connector-curvature="0" />
    </clipPath>
    <filter
       id="filter3770"
       style="color-interpolation-filters:sRGB">
      <feGaussianBlur
         id="feGaussianBlur3772"
         stdDeviation="0.65976654" />
    </filter>
    <linearGradient
       x1="26.5"
       y1="90.312759"
       x2="26.5"
       y2="6.9171443"
       id="linearGradient3671"
       xlink:href="#ButtonShadow-9"
       gradientUnits="userSpaceOnUse" />
    <linearGradient
       x1="45.447727"
       y1="80.471962"
       x2="45.447727"
       y2="7.0165396"
       id="ButtonShadow-9"
       gradientUnits="userSpaceOnUse"
       gradientTransform="matrix(1.0058652,0,0,0.994169,0,12)">
      <stop
         id="stop3750-1"
         style="stop-color:#000000;stop-opacity:1"
         offset="0" />
      <stop
         id="stop3752-0"
         style="stop-color:#000000;stop-opacity:0.58823532"
         offset="1" />
    </linearGradient>
    <linearGradient
       x1="26.5"
       y1="90.312759"
       x2="26.5"
       y2="6.9171443"
       id="linearGradient3692"
       xlink:href="#ButtonShadow-9"
       gradientUnits="userSpaceOnUse"
       gradientTransform="matrix(1.0277778,0,0,1.0127315,-1.333333,0.03087956)" />
    <linearGradient
       x1="26.5"
       y1="90.312759"
       x2="26.5"
       y2="6.9171443"
       id="linearGradient3701"
       xlink:href="#ButtonShadow-9"
       gradientUnits="userSpaceOnUse"
       gradientTransform="matrix(1.0277778,0,0,1.0127315,-1.333333,0.03087963)" />
    <linearGradient
       x1="26.5"
       y1="90.312759"
       x2="26.5"
       y2="6.9171443"
       id="linearGradient3709"
       xlink:href="#ButtonShadow-9"
       gradientUnits="userSpaceOnUse"
       gradientTransform="matrix(1.0277778,0,0,1.0127315,-1.333333,0.03087963)" />
    <linearGradient
       x1="26.5"
       y1="90.312759"
       x2="26.5"
       y2="6.9171443"
       id="linearGradient2946"
       xlink:href="#ButtonShadow-9"
       gradientUnits="userSpaceOnUse"
       gradientTransform="matrix(1.0277778,0,0,1.0127315,-1.333333,0.03087963)" />
  </defs>
  <g
     id="layer2"
     style="display:none"
     transform="translate(-7.4237327,-11.694908)">
    <path
       d="M 14.96875,8.8028918 C 13.32891,8.8028918 12,10.085142 12,11.677892 L 12,19 c -3.324,0 -7,2.676 -7,6 l 0,61 c 0,3.324 2.676,6 6,6 l 74,0 c 3.324,0 6,-2.676 6,-6 l 0,-61 c 0,-3.324 -3.747429,-6 -7.071429,-6 l 0,-0.134608 c 0,-2.389125 -1.97774,-4.3125 -4.4375,-4.3125 l -43.334821,0 -1.46875,-2.875 C 33.954141,10.253293 33.35859,8.8028918 31.71875,8.8028918 l -16.75,0 z"
       id="rect3745"
       style="opacity:0.9;fill:url(#linearGradient4018);fill-opacity:1;fill-rule:nonzero;stroke:none;filter:url(#filter3174)"
       inkscape:connector-curvature="0" />
  </g>
  <path
     inkscape:connector-curvature="0"
     style="fill:#000000;fill-opacity:1;fill-rule:nonzero;stroke:none"
     id="rect2419"
     d="m 6.2203383,1.1864434 c -2.7699995,0 -4.9999993,2.6016668 -4.9999993,5.8333336 l 0,58.333332 c 0,3.231667 2.2299998,5.833334 4.9999993,5.833334 l 60.0000017,0 c 2.77,0 5,-2.601667 5,-5.833334 l 0,-58.333332 c 0,-3.2316668 -2.23,-5.8333336 -5,-5.8333336 l -60.0000017,0 z" />
  <path
     inkscape:connector-curvature="0"
     style="opacity:0.9;fill:#13be71;fill-opacity:1;stroke:none"
     id="path3729"
     d="m 27.288133,13.016958 c -6.62742,0 -12,5.372584 -12,12 0,4.456718 2.45369,8.336505 6.0625,10.40625 -0.0398,0.195645 -0.0625,0.386 -0.0625,0.59375 l 0,2.03125 c -0.16304,-0.02656 -0.32688,-0.03125 -0.5,-0.03125 -1.385,0 -2.5,0.892 -2.5,2 0,1.108 1.115,2 2.5,2 0.17312,0 0.33696,-0.0047 0.5,-0.03125 l 0,6.03125 c 0,1.662 1.338,3 3,3 l 1,0 3.5625,0 -3.1875,4.1875 c -0.56205,0.72985 0.26436,1.81921 1.375,1.8125 l 9,0 9.03125,0 c 1.11064,0.0067 1.93705,-1.08265 1.375,-1.8125 l -3.1875,-4.1875 4.03125,0 1,0 c 1.662,0 3,-1.338 3,-3 l 0,-3.03125 0.40625,0 5.15625,3.59375 c 0.48553,0.431077 1.10934,0.434113 1.59375,0 0.48441,-0.434083 0.81119,-1.288918 0.8125,-2.15625 l 0,-4.9375 0,-3.9375 c 0.0106,-1.420441 -0.9036,-2.681381 -1.8125,-2.5 -0.20856,0.0426 -0.41158,0.149448 -0.59375,0.3125 l -5.15625,3.625 -0.40625,0 0,-2.96875 c 0,-0.62325 -0.17716,-1.208848 -0.5,-1.6875 2.73096,-2.19684 4.5,-5.532472 4.5,-9.3125 0,-6.627416 -5.37259,-12 -12,-12 -3.0781,0 -5.87652,1.153599 -8,3.0625 -2.12349,-1.908901 -4.9219,-3.0625 -8,-3.0625 z m 0,6 c 1.86396,0 3.52451,0.854017 4.625,2.1875 0.42797,0.518577 0.76324,1.107738 1,1.75 0.10094,0.27569 0.19005,0.550811 0.25,0.84375 0.0109,0.05217 0.0218,0.103585 0.0312,0.15625 0.005,0.03036 -0.005,0.06323 0,0.09375 0.0519,0.315834 0.0937,0.638046 0.0937,0.96875 0,0.330704 -0.0419,0.652916 -0.0937,0.96875 -0.005,0.03031 0.005,0.0636 0,0.09375 -0.0442,0.24929 -0.11359,0.48111 -0.1875,0.71875 -0.0293,0.09358 -0.06,0.189706 -0.0937,0.28125 -0.23676,0.642262 -0.57203,1.231423 -1,1.75 -1.10049,1.333483 -2.76104,2.1875 -4.625,2.1875 -3.31371,0 -6,-2.686291 -6,-6 0,-3.313709 2.68629,-6 6,-6 z m 16,0 c 3.31371,0 6,2.686291 6,6 0,3.313709 -2.68629,6 -6,6 -1.86396,0 -3.52451,-0.854017 -4.625,-2.1875 -0.42797,-0.518577 -0.76324,-1.107738 -1,-1.75 -0.11186,-0.305494 -0.21996,-0.611051 -0.28125,-0.9375 -0.01,-0.04992 0.008,-0.105896 0,-0.15625 -0.0519,-0.315834 -0.0937,-0.638046 -0.0937,-0.96875 0,-0.330704 0.0419,-0.652916 0.0937,-0.96875 0.008,-0.05035 -0.01,-0.106332 0,-0.15625 0.0613,-0.326449 0.16939,-0.632006 0.28125,-0.9375 0.23676,-0.642262 0.57203,-1.231423 1,-1.75 1.10049,-1.333483 2.76104,-2.1875 4.625,-2.1875 z m -16,2 c -2.20914,0 -4,1.790862 -4,4 0,2.209138 1.79086,4 4,4 2.20914,0 4,-1.790862 4,-4 0,-2.209138 -1.79086,-4 -4,-4 z m 16,0 c -2.20914,0 -4,1.790862 -4,4 0,2.209138 1.79086,4 4,4 2.20914,0 4,-1.790862 4,-4 0,-2.209138 -1.79086,-4 -4,-4 z" />
</svg>
